<svg xmlns="http://www.w3.org/2000/svg" viewBox="0 0 900 600" preserveAspectRatio="xMidYMid meet">
  <rect width="900" height="600" rx="24" fill="#eef3fb" />
  <rect x="30" y="30" width="840" height="540" rx="24" fill="#ffffff" stroke="#cbd5e1" stroke-width="6" />

  <g fill="#f8fafc" stroke="#8b98ac" stroke-width="4">
    <rect x="90" y="90" width="210" height="120" rx="16" />
    <rect x="345" y="90" width="210" height="120" rx="16" />
    <rect x="600" y="90" width="210" height="120" rx="16" />
    <rect x="90" y="330" width="210" height="120" rx="16" />
    <rect x="345" y="330" width="210" height="120" rx="16" />
    <rect x="600" y="330" width="210" height="120" rx="16" />
  </g>

  <g stroke="#94a3b8" stroke-width="3" fill="#f8fafc">
    <!-- Chairs around top-left table -->
    <rect x="110" y="70" width="50" height="20" rx="10" />
    <rect x="170" y="70" width="50" height="20" rx="10" />
    <rect x="230" y="70" width="50" height="20" rx="10" />
    <rect x="95" y="110" width="20" height="50" rx="10" />
    <rect x="95" y="160" width="20" height="50" rx="10" />
    <rect x="110" y="235" width="50" height="20" rx="10" />
    <rect x="170" y="235" width="50" height="20" rx="10" />
    <rect x="230" y="235" width="50" height="20" rx="10" />

    <!-- Chairs around top-middle table -->
    <rect x="365" y="70" width="50" height="20" rx="10" />
    <rect x="425" y="70" width="50" height="20" rx="10" />
    <rect x="485" y="70" width="50" height="20" rx="10" />
    <rect x="350" y="110" width="20" height="50" rx="10" />
    <rect x="350" y="160" width="20" height="50" rx="10" />
    <rect x="365" y="235" width="50" height="20" rx="10" />
    <rect x="425" y="235" width="50" height="20" rx="10" />
    <rect x="485" y="235" width="50" height="20" rx="10" />

    <!-- Chairs around top-right table -->
    <rect x="620" y="70" width="50" height="20" rx="10" />
    <rect x="680" y="70" width="50" height="20" rx="10" />
    <rect x="740" y="70" width="50" height="20" rx="10" />
    <rect x="605" y="110" width="20" height="50" rx="10" />
    <rect x="605" y="160" width="20" height="50" rx="10" />
    <rect x="620" y="235" width="50" height="20" rx="10" />
    <rect x="680" y="235" width="50" height="20" rx="10" />
    <rect x="740" y="235" width="50" height="20" rx="10" />

    <!-- Chairs around bottom-left table -->
    <rect x="110" y="310" width="50" height="20" rx="10" />
    <rect x="170" y="310" width="50" height="20" rx="10" />
    <rect x="230" y="310" width="50" height="20" rx="10" />
    <rect x="95" y="350" width="20" height="50" rx="10" />
    <rect x="95" y="400" width="20" height="50" rx="10" />
    <rect x="110" y="475" width="50" height="20" rx="10" />
    <rect x="170" y="475" width="50" height="20" rx="10" />
    <rect x="230" y="475" width="50" height="20" rx="10" />

    <!-- Chairs around bottom-middle table -->
    <rect x="365" y="310" width="50" height="20" rx="10" />
    <rect x="425" y="310" width="50" height="20" rx="10" />
    <rect x="485" y="310" width="50" height="20" rx="10" />
    <rect x="350" y="350" width="20" height="50" rx="10" />
    <rect x="350" y="400" width="20" height="50" rx="10" />
    <rect x="365" y="475" width="50" height="20" rx="10" />
    <rect x="425" y="475" width="50" height="20" rx="10" />
    <rect x="485" y="475" width="50" height="20" rx="10" />

    <!-- Chairs around bottom-right table -->
    <rect x="620" y="310" width="50" height="20" rx="10" />
    <rect x="680" y="310" width="50" height="20" rx="10" />
    <rect x="740" y="310" width="50" height="20" rx="10" />
    <rect x="605" y="350" width="20" height="50" rx="10" />
    <rect x="605" y="400" width="20" height="50" rx="10" />
    <rect x="620" y="475" width="50" height="20" rx="10" />
    <rect x="680" y="475" width="50" height="20" rx="10" />
    <rect x="740" y="475" width="50" height="20" rx="10" />
  </g>

  <g fill="#334155" font-family="Inter, sans-serif" font-weight="700" font-size="24">
    <text x="150" y="145">Table 1</text>
    <text x="405" y="145">Table 2</text>
    <text x="660" y="145">Table 3</text>
    <text x="150" y="385">Table 4</text>
    <text x="405" y="385">Table 5</text>
    <text x="660" y="385">Table 6</text>
  </g>

  <g fill="#64748b" font-family="Inter, sans-serif" font-size="16">
    <text x="150" y="520">Top-down seating sketch</text>
  </g>
</svg>
